<svg xmlns="http://www.w3.org/2000/svg" viewBox="0 0 1600 900">
  <rect width="1600" height="900" fill="#16132B"/>
  <circle cx="1320" cy="130" r="230" fill="#6B5CFF" opacity=".55"/>
  <circle cx="260" cy="760" r="300" fill="#28D7C7" opacity=".34"/>
  <path d="M0 700L430 450l260 150 310-250 600 350v200H0z" fill="#211C42"/>
  <path d="M0 780L380 560l300 130 270-210 650 300v120H0z" fill="#2A2451"/>
  <rect x="160" y="120" width="420" height="260" rx="34" fill="#FFF8E8" stroke="#111" stroke-width="18"/>
  <rect x="205" y="165" width="145" height="95" rx="18" fill="#FF4FA3" stroke="#111" stroke-width="12"/>
  <rect x="380" y="165" width="150" height="95" rx="18" fill="#28D7C7" stroke="#111" stroke-width="12"/>
  <rect x="205" y="288" width="325" height="48" rx="18" fill="#FFE24A" stroke="#111" stroke-width="12"/>
  <path d="M605 225l170-90 173 94-173 94z" fill="#6B5CFF" stroke="#111" stroke-width="18" stroke-linejoin="round"/>
  <path d="M775 323v175" stroke="#111" stroke-width="18" stroke-linecap="round"/>
  <circle cx="775" cy="528" r="52" fill="#FFE24A" stroke="#111" stroke-width="16"/>
  <rect x="975" y="140" width="380" height="230" rx="34" fill="#1E1A39" stroke="#111" stroke-width="18"/>
  <path d="M1020 300l70-92 77 49 92-100 50 143z" fill="#FF8A3D" stroke="#111" stroke-width="12" stroke-linejoin="round"/>
  <circle cx="1055" cy="194" r="30" fill="#FFE24A" stroke="#111" stroke-width="10"/>
  <path d="M965 630c110-116 238-173 384-170 76 2 159 24 251 69v371H873z" fill="#0F0D20" opacity=".78"/>
  <path d="M1052 688h388" stroke="#28D7C7" stroke-width="20" stroke-linecap="round"/>
  <path d="M1110 748h302" stroke="#FF4FA3" stroke-width="20" stroke-linecap="round"/>
  <path d="M1180 808h210" stroke="#FFE24A" stroke-width="20" stroke-linecap="round"/>
  <circle cx="900" cy="620" r="18" fill="#FFE24A"/>
  <circle cx="950" cy="575" r="12" fill="#FF4FA3"/>
  <circle cx="1010" cy="615" r="14" fill="#28D7C7"/>
</svg>